<svg width="1200" height="760" viewBox="0 0 1200 760" fill="none" xmlns="http://www.w3.org/2000/svg">
  <rect width="1200" height="760" rx="28" fill="#F8FAFC"/>
  <text x="64" y="74" fill="#0F172A" font-size="34" font-family="Arial, sans-serif" font-weight="700">Import / Adaptation Pipeline</text>
  <text x="64" y="110" fill="#475569" font-size="18" font-family="Arial, sans-serif">How shadcn or third-party blocks should land inside Kit Studio</text>

  <rect x="72" y="176" width="240" height="380" rx="28" fill="#FEF2F2" stroke="#FCA5A5" stroke-width="2"/>
  <text x="108" y="228" fill="#B91C1C" font-size="28" font-family="Arial, sans-serif" font-weight="700">External Block</text>
  <text x="108" y="268" fill="#7F1D1D" font-size="18" font-family="Arial, sans-serif">shadcn card</text>
  <text x="108" y="296" fill="#7F1D1D" font-size="18" font-family="Arial, sans-serif">Screenshot case</text>
  <text x="108" y="324" fill="#7F1D1D" font-size="18" font-family="Arial, sans-serif">Existing React widget</text>
  <rect x="108" y="372" width="168" height="128" rx="20" fill="white" stroke="#FECACA" stroke-dasharray="8 8"/>
  <text x="146" y="444" fill="#B91C1C" font-size="22" font-family="Arial, sans-serif" font-weight="700">Do not paste</text>

  <path d="M340 368H452" stroke="#94A3B8" stroke-width="4" stroke-linecap="round"/>
  <path d="M452 368L436 354" stroke="#94A3B8" stroke-width="4" stroke-linecap="round"/>
  <path d="M452 368L436 382" stroke="#94A3B8" stroke-width="4" stroke-linecap="round"/>

  <rect x="480" y="176" width="240" height="380" rx="28" fill="#EFF6FF" stroke="#93C5FD" stroke-width="2"/>
  <text x="530" y="228" fill="#1D4ED8" font-size="28" font-family="Arial, sans-serif" font-weight="700">Decompose</text>
  <text x="524" y="276" fill="#1E3A8A" font-size="18" font-family="Arial, sans-serif">1. Card shell parts</text>
  <text x="524" y="306" fill="#1E3A8A" font-size="18" font-family="Arial, sans-serif">2. Slot shell groups</text>
  <text x="524" y="336" fill="#1E3A8A" font-size="18" font-family="Arial, sans-serif">3. Slot atoms</text>
  <text x="524" y="366" fill="#1E3A8A" font-size="18" font-family="Arial, sans-serif">4. Object mounts</text>
  <rect x="520" y="404" width="160" height="96" rx="20" fill="white" stroke="#BFDBFE"/>
  <text x="548" y="460" fill="#1D4ED8" font-size="22" font-family="Arial, sans-serif" font-weight="700">Map to contract</text>

  <path d="M748 368H860" stroke="#94A3B8" stroke-width="4" stroke-linecap="round"/>
  <path d="M860 368L844 354" stroke="#94A3B8" stroke-width="4" stroke-linecap="round"/>
  <path d="M860 368L844 382" stroke="#94A3B8" stroke-width="4" stroke-linecap="round"/>

  <rect x="888" y="124" width="240" height="484" rx="28" fill="#ECFDF5" stroke="#86EFAC" stroke-width="2"/>
  <text x="926" y="176" fill="#15803D" font-size="28" font-family="Arial, sans-serif" font-weight="700">Rebuild in System</text>
  <rect x="924" y="218" width="168" height="62" rx="18" fill="white" stroke="#BBF7D0"/>
  <text x="960" y="256" fill="#166534" font-size="20" font-family="Arial, sans-serif" font-weight="700">Card Shell</text>
  <rect x="924" y="302" width="168" height="62" rx="18" fill="white" stroke="#BBF7D0"/>
  <text x="952" y="340" fill="#166534" font-size="20" font-family="Arial, sans-serif" font-weight="700">Slot Shell(s)</text>
  <rect x="924" y="386" width="168" height="62" rx="18" fill="white" stroke="#BBF7D0"/>
  <text x="960" y="424" fill="#166534" font-size="20" font-family="Arial, sans-serif" font-weight="700">Atoms</text>
  <rect x="924" y="470" width="168" height="86" rx="18" fill="white" stroke="#BBF7D0"/>
  <text x="962" y="506" fill="#166534" font-size="18" font-family="Arial, sans-serif" font-weight="700">Object mount</text>
  <text x="948" y="532" fill="#166534" font-size="15" font-family="Arial, sans-serif">chart / table / media</text>
</svg>
