<svg width="1200" height="760" viewBox="0 0 1200 760" fill="none" xmlns="http://www.w3.org/2000/svg">
  <rect width="1200" height="760" rx="28" fill="#F8FAFC"/>
  <text x="64" y="74" fill="#0F172A" font-size="34" font-family="Arial, sans-serif" font-weight="700">Slot Shell Product Stack</text>
  <text x="64" y="110" fill="#475569" font-size="18" font-family="Arial, sans-serif">Final editor hierarchy for Kit Studio v2</text>

  <rect x="120" y="150" width="960" height="104" rx="24" fill="#DBEAFE" stroke="#93C5FD" stroke-width="2"/>
  <text x="160" y="200" fill="#1D4ED8" font-size="28" font-family="Arial, sans-serif" font-weight="700">Page / Overlay Shell</text>
  <text x="160" y="232" fill="#1E3A8A" font-size="18" font-family="Arial, sans-serif">Top-level board shell that hosts cards and direct controls</text>

  <path d="M600 266L600 306" stroke="#94A3B8" stroke-width="4" stroke-linecap="round"/>
  <path d="M600 306L586 290" stroke="#94A3B8" stroke-width="4" stroke-linecap="round"/>
  <path d="M600 306L614 290" stroke="#94A3B8" stroke-width="4" stroke-linecap="round"/>

  <rect x="160" y="324" width="880" height="110" rx="24" fill="#EDE9FE" stroke="#C4B5FD" stroke-width="2"/>
  <text x="200" y="372" fill="#6D28D9" font-size="28" font-family="Arial, sans-serif" font-weight="700">Card = Card Shell + Controls</text>
  <text x="200" y="404" fill="#5B21B6" font-size="18" font-family="Arial, sans-serif">Card shell owns boundary, padding, header / footer, overflow; controls stay independent inside</text>

  <path d="M600 446L600 486" stroke="#94A3B8" stroke-width="4" stroke-linecap="round"/>
  <path d="M600 486L586 470" stroke="#94A3B8" stroke-width="4" stroke-linecap="round"/>
  <path d="M600 486L614 470" stroke="#94A3B8" stroke-width="4" stroke-linecap="round"/>

  <rect x="220" y="504" width="760" height="98" rx="24" fill="#DCFCE7" stroke="#86EFAC" stroke-width="2"/>
  <text x="258" y="552" fill="#15803D" font-size="28" font-family="Arial, sans-serif" font-weight="700">Control = One Slot Shell</text>
  <text x="258" y="584" fill="#166534" font-size="18" font-family="Arial, sans-serif">The control asset is no longer a hard-coded button / heading / paragraph primitive</text>

  <path d="M600 614L600 654" stroke="#94A3B8" stroke-width="4" stroke-linecap="round"/>
  <path d="M600 654L586 638" stroke="#94A3B8" stroke-width="4" stroke-linecap="round"/>
  <path d="M600 654L614 638" stroke="#94A3B8" stroke-width="4" stroke-linecap="round"/>

  <rect x="74" y="668" width="250" height="56" rx="20" fill="#FFF7ED" stroke="#FDBA74" stroke-width="2"/>
  <text x="102" y="704" fill="#C2410C" font-size="22" font-family="Arial, sans-serif" font-weight="700">Slot Shell → Rows → Slots</text>

  <rect x="354" y="668" width="220" height="56" rx="20" fill="#FEF2F2" stroke="#FCA5A5" stroke-width="2"/>
  <text x="392" y="704" fill="#B91C1C" font-size="22" font-family="Arial, sans-serif" font-weight="700">Text Atom</text>

  <rect x="604" y="668" width="220" height="56" rx="20" fill="#ECFEFF" stroke="#67E8F9" stroke-width="2"/>
  <text x="636" y="704" fill="#0F766E" font-size="22" font-family="Arial, sans-serif" font-weight="700">Media Atom</text>

  <rect x="854" y="668" width="272" height="56" rx="20" fill="#F5F3FF" stroke="#C4B5FD" stroke-width="2"/>
  <text x="884" y="704" fill="#6D28D9" font-size="22" font-family="Arial, sans-serif" font-weight="700">Spacer / Divider / Object</text>
</svg>
